<?xml version="1.0" encoding="utf-8"?>
<!-- Generator: Adobe Illustrator 17.0.0, SVG Export Plug-In . SVG Version: 6.00 Build 0)  -->
<!DOCTYPE svg PUBLIC "-//W3C//DTD SVG 1.1//EN" "http://www.w3.org/Graphics/SVG/1.1/DTD/svg11.dtd">
<svg version="1.1" id="Layer_1" xmlns="http://www.w3.org/2000/svg" xmlns:xlink="http://www.w3.org/1999/xlink" x="0px" y="0px"
	 width="512px" height="512px" viewBox="0 0 512 512" enable-background="new 0 0 512 512" xml:space="preserve">
<g>
	<path fill-rule="evenodd" clip-rule="evenodd" d="M495.581,443.084l-53.137,53.159c-2.446,2.445-5.764,3.811-9.193,3.811
		c-0.415,0-0.838-0.021-1.252-0.061c-3.869-0.372-7.365-2.462-9.532-5.69L304.725,319.259l-35.65,35.656
		c-0.677,0.681-1.422,1.28-2.235,1.789l-67.032,42.483l6.281,74.626c0.665,15.613-7.707,29.195-21.286,35.154
		c-4.639,2.042-9.452,3.032-14.196,3.032c-9.058,0-17.879-3.623-24.808-10.56l-41.632-41.637l-12.432,7.879
		c-5.96,3.631-12.435,5.401-18.801,5.401c-8.974,0-17.739-3.522-24.549-10.337c-11.644-11.645-13.676-28.992-5.054-43.16
		l8.004-12.631L10.57,366.185c-10.696-10.698-13.511-26.449-7.166-40.13c6.264-13.489,19.893-21.423,34.776-20.181l73.713,5.494
		l42.52-67.117c0.512-0.807,1.113-1.558,1.791-2.234l35.606-35.614L16.872,89.486c-3.238-2.165-5.333-5.667-5.714-9.537
		c-0.381-3.872,0.99-7.719,3.745-10.471l52.879-52.89c20.447-19.34,51.029-22.043,72.997-6.663l148.641,98.848l39.285-39.296
		c31.118-31.125,81.758-31.125,112.876,0c31.119,31.126,31.119,81.77,0,112.897l-39.253,39.259l99.805,148.921
		C517.346,392.299,514.654,422.893,495.581,443.084z M164.185,483.049c4.119,4.126,8.483,2.846,10.167,2.1
		c1.427-0.623,6.061-3.175,5.791-9.701l-5.107-60.56l-48.36,30.648L164.185,483.049z M36.135,331.81
		c-5.875-0.585-8.338,3.463-9.138,5.19c-0.657,1.415-2.455,6.377,1.963,10.795l36.637,36.646l30.513-48.161L36.135,331.81z
		 M126.121,31.408c-12.329-8.621-28.769-6.973-40.218,3.827L44.494,76.663l166.064,110.986l60.109-60.121L126.121,31.408z
		 M423.194,87.867c-20.977-20.978-55.125-20.978-76.103,0L175.609,259.392L80.553,409.427c-0.608,1.932-1.522,3.778-3.053,5.309
		c-0.158,0.159-0.372,0.208-0.536,0.36l-11.544,18.22c-3.39,5.579,0.178,9.862,1.354,11.04c1.165,1.188,5.478,4.733,11.242,1.235
		L251.704,335.51l171.491-171.525C444.172,142.997,444.172,108.855,423.194,87.867z M480.674,385.255l-97.092-144.868
		l-60.127,60.139l111.769,166.159l41.709-41.725C487.489,413.771,489.131,397.338,480.674,385.255z"/>
</g>
</svg>
