<?xml version="1.0" encoding="utf-8"?>
<!-- Generator: Adobe Illustrator 17.0.0, SVG Export Plug-In . SVG Version: 6.00 Build 0)  -->
<!DOCTYPE svg PUBLIC "-//W3C//DTD SVG 1.1//EN" "http://www.w3.org/Graphics/SVG/1.1/DTD/svg11.dtd">
<svg version="1.1" id="Layer_1" xmlns="http://www.w3.org/2000/svg" xmlns:xlink="http://www.w3.org/1999/xlink" x="0px" y="0px"
	 width="512px" height="512px" viewBox="0 0 512 512" enable-background="new 0 0 512 512" xml:space="preserve">
<g>
	<path fill-rule="evenodd" clip-rule="evenodd" d="M17.929,116.073c23.906-23.776,62.668-23.776,86.574,0l194.784,193.734
		c23.906,23.796,23.906,62.348,0,86.134c-23.906,23.756-62.668,23.756-86.574,0L17.929,202.207
		C-5.976,178.432-5.976,139.859,17.929,116.073z"/>
	<path fill-rule="evenodd" clip-rule="evenodd" d="M212.713,309.808l194.784-193.734c23.906-23.776,62.668-23.776,86.574,0
		c23.906,23.786,23.906,62.358,0,86.134L299.287,395.942c-23.906,23.756-62.668,23.756-86.574,0
		C188.807,372.156,188.807,333.603,212.713,309.808z"/>
</g>
</svg>
