<?xml version="1.0" encoding="utf-8"?>
<!-- Generator: Adobe Illustrator 17.0.0, SVG Export Plug-In . SVG Version: 6.00 Build 0)  -->
<!DOCTYPE svg PUBLIC "-//W3C//DTD SVG 1.1//EN" "http://www.w3.org/Graphics/SVG/1.1/DTD/svg11.dtd">
<svg version="1.1" id="Layer_1" xmlns="http://www.w3.org/2000/svg" xmlns:xlink="http://www.w3.org/1999/xlink" x="0px" y="0px"
	 width="512px" height="512px" viewBox="0 0 512 512" enable-background="new 0 0 512 512" xml:space="preserve">
<g>
	<path fill-rule="evenodd" clip-rule="evenodd" d="M409.601,376.387c-37.967,0-80.451-26.283-120.716-54.698
		c-7.735-5.458-9.6-16.178-4.2-23.947c5.4-7.798,16.082-9.677,23.765-4.233c20.568,14.504,68.718,48.485,101.152,48.485
		c38.284,0,68.267-30.211,68.267-68.795c0-38.574-29.983-68.79-68.267-68.79c-27.485,0-94.067,46.928-147.568,84.63
		c-66.508,46.875-123.949,87.35-159.633,87.35C44.983,376.387,0,331.057,0,273.198c0-57.846,44.983-103.177,102.4-103.177
		c24.771,0,51.192,11.543,76.679,27.118l-14.162-38.31c-3.293-8.907,1.199-18.803,10.034-22.117
		c8.825-3.344,18.649,1.198,21.949,10.11l32.426,87.708c1.6,4.316,1.407,9.105-0.532,13.287c-1.942,4.176-5.461,7.394-9.776,8.929
		l-87.042,30.954c-1.884,0.666-3.8,0.989-5.683,0.989c-7.034,0-13.618-4.416-16.092-11.495c-3.142-8.948,1.525-18.769,10.408-21.929
		l54.966-19.546c-24.892-16.866-51.669-31.311-73.174-31.311c-38.284,0-68.267,30.216-68.267,68.79
		c0,38.584,29.983,68.795,68.267,68.795c24.934,0,88.776-44.994,140.067-81.147c66.283-46.709,128.901-90.826,167.134-90.826
		c57.417,0,102.399,45.331,102.399,103.177C512,331.057,467.018,376.387,409.601,376.387z"/>
</g>
</svg>
