<?xml version="1.0" encoding="utf-8"?>
<!-- Generator: Adobe Illustrator 17.0.0, SVG Export Plug-In . SVG Version: 6.00 Build 0)  -->
<!DOCTYPE svg PUBLIC "-//W3C//DTD SVG 1.1//EN" "http://www.w3.org/Graphics/SVG/1.1/DTD/svg11.dtd">
<svg version="1.1" id="Layer_1" xmlns="http://www.w3.org/2000/svg" xmlns:xlink="http://www.w3.org/1999/xlink" x="0px" y="0px"
	 width="512px" height="512px" viewBox="0 0 512 512" enable-background="new 0 0 512 512" xml:space="preserve">
<g>
	<path d="M151.86,487.894c-1.555,0-3.127-0.281-4.636-0.865c-5.046-1.938-8.377-6.819-8.377-12.262V299.755
		c0-3.993,1.797-7.758,4.886-10.248L490.848,9.482c5.635-4.53,13.814-3.606,18.296,2.054c4.492,5.66,3.585,13.918-2.025,18.45
		L164.882,306.062v134.31l71.864-81.103c4.797-5.411,13.029-5.875,18.381-1.044c5.356,4.829,5.822,13.127,1.035,18.523
		l-94.59,106.761C159.051,486.354,155.5,487.894,151.86,487.894z"/>
	<path d="M412.204,505.393c-2.746,0-5.466-0.869-7.737-2.572L5.28,205.302c-3.864-2.881-5.843-7.678-5.14-12.472
		c0.703-4.799,3.97-8.814,8.5-10.443L494.602,7.374c4.381-1.574,9.271-0.683,12.823,2.367c3.543,3.046,5.203,7.769,4.356,12.379
		l-86.78,472.543c-0.813,4.44-3.848,8.158-8.025,9.818C415.433,505.097,413.814,505.393,412.204,505.393z M40.39,198.827
		l362.806,270.404l78.873-429.466L40.39,198.827z"/>
</g>
</svg>
