<?xml version="1.0" encoding="utf-8"?>
<!-- Generator: Adobe Illustrator 17.0.0, SVG Export Plug-In . SVG Version: 6.00 Build 0)  -->
<!DOCTYPE svg PUBLIC "-//W3C//DTD SVG 1.1//EN" "http://www.w3.org/Graphics/SVG/1.1/DTD/svg11.dtd">
<svg version="1.1" id="Layer_1" xmlns="http://www.w3.org/2000/svg" xmlns:xlink="http://www.w3.org/1999/xlink" x="0px" y="0px"
	 width="512px" height="512px" viewBox="0 0 512 512" enable-background="new 0 0 512 512" xml:space="preserve">
<g>
	<g>
		<path fill="#A1CD3A" d="M438.871,410.875H73.115c-4.752,0-9.121-2.491-11.423-6.518c-2.302-4.01-2.169-8.924,0.345-12.819
			l65.313-101.117c2.391-3.691,6.576-5.938,11.078-5.938h71.845c7.214,0,13.064,5.653,13.064,12.639s-5.85,12.641-13.064,12.641
			h-64.605l-48.985,75.835h318.613l-48.985-75.835h-65.9c-7.219,0-13.063-5.655-13.063-12.641s5.843-12.639,13.063-12.639h73.147
			c4.503,0,8.686,2.247,11.073,5.938l65.313,101.117c2.526,3.895,2.654,8.809,0.357,12.819
			C447.991,408.383,443.617,410.875,438.871,410.875z"/>
		<path fill-rule="evenodd" clip-rule="evenodd" fill="#A1CD3A" d="M66.412,436.157h379.214c3.491,0,6.32,2.83,6.32,6.32v12.64
			c0,3.491-2.83,6.32-6.32,6.32H66.412c-3.491,0-6.32-2.829-6.32-6.32v-12.64C60.092,438.987,62.921,436.157,66.412,436.157z"/>
		<path fill-rule="evenodd" clip-rule="evenodd" fill="#A1CD3A" d="M66.412,486.719h379.214c3.491,0,6.32,2.83,6.32,6.32v12.64
			c0,3.491-2.83,6.321-6.32,6.321H66.412c-3.491,0-6.32-2.83-6.32-6.321v-12.64C60.092,489.549,62.921,486.719,66.412,486.719z"/>
	</g>
	<g>
		<path fill="#333440" d="M252.859,353.954c-3.456,0-6.765-1.421-9.151-3.93c-5.303-5.565-129.882-137.291-129.882-216.025
			C113.825,50.125,184.515,0,252.859,0c68.345,0,139.035,50.125,139.035,133.999c0,78.734-124.58,210.461-129.882,216.025
			C259.623,352.533,256.314,353.954,252.859,353.954z M252.859,25.287c-55.914,0-113.756,40.657-113.756,108.712
			c0,52.485,75.128,146.132,113.756,188.723c38.623-42.604,113.756-136.283,113.756-188.723
			C366.615,65.945,308.773,25.287,252.859,25.287z"/>
		<path fill="#333440" d="M252.859,189.619c-27.878,0-50.558-22.686-50.558-50.564c0-27.885,22.68-50.568,50.558-50.568
			c27.884,0,50.558,22.683,50.558,50.568C303.417,166.934,280.743,189.619,252.859,189.619z M252.859,113.768
			c-13.941,0-25.279,11.344-25.279,25.287c0,13.942,11.338,25.28,25.279,25.28c13.935,0,25.279-11.339,25.279-25.28
			C278.138,125.112,266.794,113.768,252.859,113.768z"/>
	</g>
</g>
</svg>
