<?xml version="1.0" encoding="utf-8"?>
<!-- Generator: Adobe Illustrator 17.0.0, SVG Export Plug-In . SVG Version: 6.00 Build 0)  -->
<!DOCTYPE svg PUBLIC "-//W3C//DTD SVG 1.1//EN" "http://www.w3.org/Graphics/SVG/1.1/DTD/svg11.dtd">
<svg version="1.1" id="Layer_1" xmlns="http://www.w3.org/2000/svg" xmlns:xlink="http://www.w3.org/1999/xlink" x="0px" y="0px"
	 width="512px" height="512px" viewBox="0 0 512 512" enable-background="new 0 0 512 512" xml:space="preserve">
<g>
	<g>
		<path fill="#333440" d="M496,495.995H16c-8.836,0-16-7.156-16-16.001V32c0-8.83,7.164-15.995,16-15.995h176
			c5.038,0,9.78,2.364,12.797,6.393L248,80.002h248c8.843,0,16,7.165,16,15.999v383.992C512,488.839,504.843,495.995,496,495.995z
			 M31.999,463.994h448V112.001H240c-5.038,0-9.781-2.365-12.797-6.4L184,47.999H31.999V463.994z"/>
	</g>
	<g>
		<path fill="#A1CD3A" d="M180,352.463c-4.095,0-8.187-1.56-11.312-4.683l-48.001-48c-6.249-6.251-6.249-16.379,0-22.626
			l48.001-47.995c6.249-6.256,16.373-6.256,22.625,0c6.251,6.247,6.251,16.371,0,22.617l-36.687,36.693l36.687,36.685
			c6.251,6.251,6.251,16.378,0,22.626C188.186,350.902,184.093,352.463,180,352.463z"/>
		<path fill="#A1CD3A" d="M339.999,352.463c-4.095,0-8.187-1.56-11.312-4.683c-6.251-6.248-6.251-16.375,0-22.626l36.686-36.685
			l-36.686-36.693c-6.251-6.246-6.251-16.37,0-22.617c6.249-6.256,16.375-6.256,22.625,0l48,47.995
			c6.252,6.247,6.252,16.375,0,22.626l-48,48C348.186,350.902,344.094,352.463,339.999,352.463z"/>
		<path fill="#A1CD3A" d="M227.999,400.465c-1.671,0-3.382-0.262-5.062-0.829c-8.383-2.781-12.915-11.84-10.118-20.232
			l64.008-191.998c2.797-8.383,11.781-12.931,20.234-10.116c8.375,2.799,12.905,11.859,10.109,20.24l-63.993,192.001
			C240.945,396.23,234.701,400.465,227.999,400.465z"/>
	</g>
</g>
</svg>
