<?xml version="1.0" encoding="utf-8"?>
<!-- Generator: Adobe Illustrator 17.0.0, SVG Export Plug-In . SVG Version: 6.00 Build 0)  -->
<!DOCTYPE svg PUBLIC "-//W3C//DTD SVG 1.1//EN" "http://www.w3.org/Graphics/SVG/1.1/DTD/svg11.dtd">
<svg version="1.1" id="Layer_1" xmlns="http://www.w3.org/2000/svg" xmlns:xlink="http://www.w3.org/1999/xlink" x="0px" y="0px"
	 width="512px" height="512px" viewBox="0 0 512 512" enable-background="new 0 0 512 512" xml:space="preserve">
<g>
	<g>
		<path fill="#333440" d="M256,512C115.013,512,0.307,397.154,0.307,256.005C0.307,114.841,115.013,0,256,0
			c140.988,0,255.693,114.841,255.693,256.005C511.693,397.154,396.988,512,256,512z M256,31.996
			c-123.367,0-223.731,100.492-223.731,224.009c0,123.51,100.363,223.999,223.731,223.999s223.731-100.488,223.731-223.999
			C479.731,132.489,379.367,31.996,256,31.996z"/>
	</g>
	<g>
		<path fill="#A1CD3A" d="M200.071,384.001c-2.528,0-5.056-0.591-7.381-1.815c-5.282-2.75-8.6-8.213-8.6-14.183V143.997
			c0-5.962,3.317-11.434,8.6-14.191c5.284-2.744,11.658-2.339,16.542,1.088L369.04,242.891c4.277,2.987,6.821,7.888,6.821,13.114
			c0,5.218-2.544,10.115-6.821,13.104L209.233,381.107C206.502,383.034,203.295,384.001,200.071,384.001z M216.053,174.728v162.54
			l115.956-81.263L216.053,174.728z"/>
	</g>
</g>
</svg>
