<?xml version="1.0" encoding="utf-8"?>
<!-- Generator: Adobe Illustrator 17.0.0, SVG Export Plug-In . SVG Version: 6.00 Build 0)  -->
<!DOCTYPE svg PUBLIC "-//W3C//DTD SVG 1.1//EN" "http://www.w3.org/Graphics/SVG/1.1/DTD/svg11.dtd">
<svg version="1.1" id="Layer_1" xmlns="http://www.w3.org/2000/svg" xmlns:xlink="http://www.w3.org/1999/xlink" x="0px" y="0px"
	 width="512px" height="512px" viewBox="0 0 512 512" enable-background="new 0 0 512 512" xml:space="preserve">
<g>
	<g>
		<path fill="#333440" d="M256,511.901c-141.156,0-256-114.795-256-255.897C0,114.903,114.844,0.099,256,0.099
			c100.328,0,191.469,58.32,232.172,148.577c3.642,8.047,0.048,17.517-8,21.148c-8.109,3.673-17.545,0.046-21.155-8.003
			C423.454,83.015,343.767,32.091,256,32.091c-123.516,0-223.999,100.444-223.999,223.913
			c0,123.469,100.484,223.912,223.999,223.912c123.516,0,224.001-100.443,224.001-223.912c0-8.835,7.156-16,15.999-16
			s16,7.165,16,16C512,397.106,397.157,511.901,256,511.901z"/>
		<path fill="#333440" d="M475.203,174.433c-0.702,0-1.406-0.048-2.108-0.141l-72-9.595c-8.766-1.164-14.924-9.218-13.751-17.974
			c1.171-8.756,9.203-14.908,17.968-13.732l56.016,7.462l7.594-60.764c1.111-8.764,9.094-15.055,17.859-13.887
			c8.766,1.094,14.986,9.093,13.891,17.857l-9.594,76.767c-0.532,4.237-2.718,8.075-6.109,10.68
			C482.157,173.276,478.718,174.433,475.203,174.433z"/>
	</g>
	<g>
		<path fill="#A1CD3A" d="M344.001,351.972c-8.843,0-16-7.161-16-15.999v-31.985h-64c-5.992,0-11.485-3.347-14.227-8.672
			c-2.741-5.339-2.271-11.747,1.203-16.618l80.008-111.955c4.048-5.663,11.282-8.062,17.908-5.937
			c6.609,2.116,11.109,8.277,11.109,15.226v95.967h32.001c8.843,0,15.999,7.153,15.999,15.991c0,8.837-7.155,15.998-15.999,15.998
			h-32.001v31.985C360.001,344.812,352.844,351.972,344.001,351.972z M295.095,271.999h32.906v-46.051L295.095,271.999z"/>
		<path fill="#A1CD3A" d="M216.002,351.972h-96c-6.852,0-12.945-4.383-15.149-10.862c-2.203-6.482-0.023-13.651,5.414-17.837
			c43.156-33.098,89.735-80.455,89.735-99.258c0-18.304-16.891-31.987-32.001-31.987c-15.249,0-31.999,16.743-31.999,31.987
			c0,8.832-7.165,15.989-16,15.989c-8.836,0-16-7.157-16-15.989c0-32.887,31.101-63.979,64-63.979
			c34.696,0,63.999,29.3,63.999,63.979c0,29.242-37.546,68.833-67.78,95.963h51.781c8.835,0,15.999,7.149,15.999,15.994
			C232,344.812,224.837,351.972,216.002,351.972z"/>
	</g>
</g>
</svg>
